<?xml version="1.0" standalone="no"?>
<!DOCTYPE svg PUBLIC "-//W3C//DTD SVG 20010904//EN"
 "http://www.w3.org/TR/2001/REC-SVG-20010904/DTD/svg10.dtd">
<svg version="1.0" xmlns="http://www.w3.org/2000/svg"
 width="512.000000pt" height="512.000000pt" viewBox="0 0 512.000000 512.000000"
 preserveAspectRatio="xMidYMid meet">
<metadata>
Created by potrace 1.11, written by Peter Selinger 2001-2013
</metadata>
<g transform="translate(0.000000,512.000000) scale(0.100000,-0.100000)"
fill="#000000" stroke="none">
<path d="M2857 4094 c-1 -1 -36 -5 -77 -8 -41 -3 -85 -7 -96 -10 -12 -2 -38
-7 -58 -10 -228 -36 -524 -175 -716 -334 -127 -106 -269 -279 -337 -411 l-40
-78 -19 36 c-54 102 -126 184 -222 251 -31 22 -84 60 -117 86 -127 99 -261
140 -429 131 -343 -17 -605 -303 -592 -647 5 -115 9 -134 47 -226 49 -117 145
-230 254 -299 16 -10 53 -38 82 -61 96 -78 201 -128 302 -142 73 -10 201 -5
258 10 50 14 52 14 85 -11 18 -14 35 -28 38 -31 3 -3 21 -16 40 -28 19 -12 49
-33 65 -48 17 -14 38 -32 48 -39 16 -11 15 -17 -17 -88 -77 -168 -99 -339 -66
-510 18 -97 39 -128 117 -174 37 -22 43 -30 54 -81 15 -64 59 -116 129 -152
22 -11 51 -32 63 -46 49 -57 187 -126 277 -140 153 -23 325 10 450 87 69 42
78 69 79 224 1 72 3 139 5 150 2 11 7 52 11 90 4 39 9 79 12 90 2 11 5 26 5
33 1 7 17 12 42 12 206 3 1009 0 1012 -3 9 -8 15 -92 19 -242 5 -184 7 -190
96 -242 30 -17 72 -49 94 -71 114 -111 362 -165 544 -117 136 35 240 111 260
190 7 27 18 46 30 50 10 3 34 22 54 41 29 29 39 51 52 108 45 193 2 389 -126
578 -35 51 -38 59 -28 87 8 23 20 33 47 40 21 6 108 28 196 50 87 22 165 46
173 54 28 28 6 54 -70 85 -60 26 -73 35 -75 56 -2 17 -14 32 -33 41 -35 18
-35 19 -9 55 28 39 32 108 10 157 -17 38 -65 83 -102 96 -10 3 -20 22 -24 44
-20 111 -83 251 -193 428 -96 156 -155 232 -256 330 -95 93 -325 268 -445 339
-95 57 -300 145 -373 161 -12 2 -40 9 -62 15 -46 11 -149 29 -215 36 -44 5
-249 11 -253 8z"/>
</g>
</svg>
